<?xml version="1.0" standalone="no"?>
<!DOCTYPE svg PUBLIC "-//W3C//DTD SVG 20010904//EN"
 "http://www.w3.org/TR/2001/REC-SVG-20010904/DTD/svg10.dtd">
<svg version="1.0" xmlns="http://www.w3.org/2000/svg"
 width="384.000000pt" height="384.000000pt" viewBox="0 0 384.000000 384.000000"
 preserveAspectRatio="xMidYMid meet">
<metadata>
Created by potrace 1.11, written by Peter Selinger 2001-2013
</metadata>
<g transform="translate(0.000000,384.000000) scale(0.100000,-0.100000)"
fill="#000000" stroke="none">
<path d="M1145 2534 c-219 -53 -408 -243 -459 -464 -33 -140 -15 -295 52 -430
51 -104 168 -221 272 -272 126 -62 168 -68 498 -68 l292 0 0 48 c0 26 -3 77
-6 114 l-7 66 -291 4 -291 3 -67 32 c-93 44 -151 100 -195 191 -35 70 -38 81
-37 166 0 81 3 98 31 158 43 93 100 151 191 196 l76 37 298 3 298 3 0 38 c0
21 -3 72 -6 114 l-7 77 -291 -1 c-217 0 -306 -4 -351 -15z"/>
<path d="M2050 2436 l0 -114 298 -4 297 -3 67 -32 c310 -147 310 -569 0 -716
l-67 -32 -297 -3 -298 -4 0 -114 0 -114 284 0 c294 0 354 6 446 42 176 69 310
214 376 408 27 78 27 272 0 350 -68 202 -208 348 -398 417 -72 27 -76 27 -390
31 l-318 3 0 -115z"/>
<path d="M1424 2037 c-2 -7 -3 -62 -2 -123 l3 -109 494 -3 c290 -1 499 2 504
7 5 5 6 58 2 125 l-7 116 -495 0 c-398 0 -495 -3 -499 -13z"/>
</g>
</svg>
