<?xml version="1.0" encoding="utf-8"?>
<!-- Generator: Adobe Illustrator 19.2.0, SVG Export Plug-In . SVG Version: 6.00 Build 0)  -->
<svg version="1.1" xmlns="http://www.w3.org/2000/svg" xmlns:xlink="http://www.w3.org/1999/xlink" x="0px" y="0px"
	 viewBox="0 0 1280 450" style="enable-background:new 0 0 1280 450;" xml:space="preserve">
<style type="text/css">
	.st0{fill:#ECF0F1;}
</style>
<g id="Layer_2">
</g>
<g id="Layer_1">
	<g>
		<path class="st0" d="M31,99h99v197h76v79H31V99z"/>
		<path class="st0" d="M540,240.3V375h-90V250.5c0-12.2-6-18.5-15-18.5c-10.2,0-15,9-15,18.5V375h-89V164h86v18.1
			c10-10.6,28.1-22.4,51.7-22.4C514.7,159.7,540,191.5,540,240.3z"/>
		<path class="st0" d="M558,90h91v146.4l33.9-72.4h98.3l-52.7,96.8L784.8,375H682.1L649,293.4V375h-91V90z"/>
		<path class="st0" d="M855.2,289c3.1,13,16.5,22.4,33,22.4c16.5,0,29.1-7.3,35.8-14.7l60.6,33.1c-9.4,12.2-39.3,49.2-101.5,49.2
			c-74.3,0-116.8-51.5-116.8-112.5c0-59.4,45.2-107.4,111.3-107.4c71.2,0,112.1,44,112.1,107.7c0,14.2-1.2,22-1.2,22H855.2z
			 M901.2,245c-0.8-12-9-20.5-21.6-20.5c-11.8,0-20.1,8.5-21.2,20.5H901.2z"/>
		<path class="st0" d="M1144,240.7c-5-1.6-8.7-2.8-15.8-2.8c-19.3,0-34.2,14.2-34.2,38.5V375h-90V164h88v23.6
			c7-11.4,25-27.9,52-27.9V240.7z"/>
	</g>
	<g>
		<g>
			<path class="st0" d="M266.4,159.7c29.9,0,48.8-19.3,48.8-44c0-25.2-18.9-44.4-48.8-44.4c-29.9,0-48.8,19.3-48.8,44.4
				C217.7,140.4,236.6,159.7,266.4,159.7z M222,374h89V165h-89V374z M234.2,204.4c0.3-17.7,15.4-32.4,33.2-32.2
				c17.7,0.3,32.4,15.4,32.2,33.2l-0.5,32.7c-0.2,13.1-8.3,24.6-20.1,29.6l0.2-15.9c3.8-3.7,6.7-9.2,6.8-14.8l0.5-32.7
				c0.6-10.7-8.6-19.3-19.3-19.9c-10.7-0.6-19.7,8.1-19.9,19.3l-0.5,32.7c-0.1,5.6,2.2,10.8,6.3,14.1l-0.2,15.9
				c-11.6-5.3-19.3-17.1-19.1-30.2L234.2,204.4z M273,230.2l-1.2,78.4c-0.1,3.7-2.9,6.5-6.6,6.4c-3.7-0.1-6.5-2.9-6.4-6.6l1.2-78.4
				c0.1-3.7,2.9-6.5,6.6-6.4C270.3,223.6,273,226.5,273,230.2z M232.6,301.4c-0.3-13.5,8.3-24.6,20.1-29.6l-0.2,15.9
				c-3.8,3.7-6.7,9.2-6.8,14.8l-0.5,32.7c-0.6,10.7,8.1,19.7,19.3,19.9c10.7,0.6,19.7-8.1,19.9-19.3l0.5-32.7
				c0.1-6.5-2.6-11.2-6.3-15l0.2-15.9c11.6,5.3,19.3,17.1,19.1,30.2l-0.5,32.7c0.2,18.2-15,32.9-33.2,32.2
				c-17.7-0.3-32.4-15.4-32.2-33.2L232.6,301.4z"/>
		</g>
	</g>
	<g>
		<path class="st0" d="M172.6,429l-2.2,8h-17.8l17.3-50h17.9l17.3,50h-18.6l-2.2-8H172.6z M178.4,404.7l-2.9,10.3h5.7L178.4,404.7z"
			/>
		<path class="st0" d="M263,449h-16v-14.6c-2,1.4-5.3,2.9-8.8,2.9c-11.5,0-17.8-8.2-17.8-19.9c0-11.8,6-20.1,17.5-20.1
			c4,0,9.1,1.4,9.1,3.2V398h16V449z M241.9,410.3c-3.2,0-5.2,2.7-5.2,7.1c0,4.1,2,7.1,5.2,7.1s5.3-2.7,5.3-7.1
			C247.2,413.4,245.4,410.3,241.9,410.3z"/>
		<path class="st0" d="M267,423.2V398h17v22.7c0,2.2,0.9,3.4,2.5,3.4c1.9,0,2.5-1.6,2.5-3.4V398h15v39h-15v-3.6
			c-2,1.8-4.8,3.9-8.6,3.9C271.6,437.3,267,432.1,267,423.2z"/>
		<path class="st0" d="M307.5,389.3c0-4.6,3.4-8.1,8.9-8.1c5.4,0,8.9,3.5,8.9,8.1c0,4.5-3.4,8-8.9,8
			C311,397.3,307.5,393.8,307.5,389.3z M307,398h17v39h-17V398z"/>
		<path class="st0" d="M349,397.2c4.7,0,9.2,1.5,12.1,3.5l-3.7,12.3c-2-1.7-4.4-2.7-6.7-2.7c-4.4,0-7.2,3.2-7.2,7
			c0,3.8,2.9,6.9,7.2,6.9c2.3,0,4.8-0.6,6.7-2.8l3.7,12.4c-2.9,2-7.3,3.5-12,3.5c-12.4,0-22-8.3-22-20
			C327.3,405.6,336.6,397.2,349,397.2z"/>
		<path class="st0" d="M364,385h17v26.3l5.5-13.3h17.9l-9.6,17.9l10.3,21.1h-18.7l-5.4-15.3V437h-17V385z"/>
		<path class="st0" d="M408,385h15v15.2c2-1.4,5.6-2.9,9.1-2.9c11.5,0,18,8.2,18,19.9c0,11.8-6.3,20.1-17.7,20.1
			c-4,0-7.4-1.4-9.4-3.2v2.9h-15V385z M428.7,424.3c3.2,0,5.2-2.7,5.2-7.1c0-4.1-2-7.1-5.2-7.1c-3.2,0-5.3,2.7-5.3,7.1
			C423.4,421.2,425.2,424.3,428.7,424.3z"/>
		<path class="st0" d="M467.4,413c2.9,0,4.6,0.8,6.6,1.3V413c0-1.6-1.8-2.7-5-2.7c-3,0-6.6,0.9-9.5,2.4l-5.3-10.5
			c4.9-3,11.5-4.9,18.2-4.9c13.7,0,18.6,7.6,18.6,16.6V437h-15.1l-0.7-2.8c-2.2,2.2-5.4,3.3-9.2,3.3c-7.2,0-13.4-3.8-13.4-12.5
			C452.6,417.2,459.2,413,467.4,413z M471.5,426.1c1.6,0,3.1-0.9,3.1-2.4c0-1.4-1.4-2.4-3.2-2.4c-1.7,0-3.2,0.9-3.2,2.4
			C468.2,425.3,469.8,426.1,471.5,426.1z"/>
		<path class="st0" d="M518,412.1c0-0.3-1.5-0.5-2.8-0.5c-3.5,0-6.2,2.6-6.2,7V437h-15v-39h15v4.4c2-2.1,5-5.1,9-5.1V412.1z"/>
		<path class="st0" d="M540,390h15v8h6v12h-6v11.4c0,2,1.9,2.5,3.5,2.5c1.4,0,2.5-0.2,2.5-0.2v12.5c0,0-1.8,0.7-5.6,0.7
			c-10.4,0-15.4-4.9-15.4-15.1V410h-4v-12h4V390z"/>
		<path class="st0" d="M585.3,437.3c-12.8,0-21.6-8.6-21.6-20.1c0-11.5,8.7-20,21.6-20c12.8,0,21.6,8.5,21.6,20
			C606.9,428.7,598.1,437.3,585.3,437.3z M585.3,424.4c3.2,0,5.1-2.9,5.1-7.2s-1.9-7.1-5.1-7.1c-3.2,0-5.1,2.9-5.1,7.1
			S582.1,424.4,585.3,424.4z"/>
		<path class="st0" d="M627,390h17v8h5v12h-5v11.4c0,2,1.4,2.5,3,2.5c1.4,0,2-0.2,2-0.2v12.5c0,0-2.3,0.7-6.1,0.7
			c-10.4,0-15.9-4.9-15.9-15.1V410h-5v-12h5V390z"/>
		<path class="st0" d="M691,412v25h-17v-23.1c0-2.2-1.4-3.4-3-3.4c-1.9,0-3,1.6-3,3.4V437h-16v-52h16v16.5c3-1.8,5.5-4.2,9.6-4.2
			C686.1,397.3,691,403.1,691,412z"/>
		<path class="st0" d="M709.6,420c0.6,4,3,4.5,6,4.5c3,0,5.3-1.1,6.5-2.5l11,6.1c-1.7,2.2-7.2,9-18.5,9c-13.5,0-21.3-9.4-21.3-20.5
			c0-10.8,8.2-19.6,20.3-19.6c13,0,20.4,7.6,20.4,19.2c0,2.6-0.2,3.6-0.2,3.6H709.6z M718,412c-0.1-2-1.6-3.7-3.9-3.7
			c-2.2,0-3.7,1.7-3.9,3.7H718z"/>
		<path class="st0" d="M749.8,389.3c0-4.6,3.4-8.1,8.9-8.1c5.4,0,8.9,3.5,8.9,8.1c0,4.5-3.4,8-8.9,8
			C753.3,397.3,749.8,393.8,749.8,389.3z M750,398h17v39h-17V398z"/>
		<path class="st0" d="M809,412v25h-17v-23.1c0-2.2-0.9-3.4-2.5-3.4c-1.9,0-2.5,1.6-2.5,3.4V437h-17v-39h15v3.4
			c2-1.9,5.9-4.1,10.2-4.1C803.6,397.3,809,403.1,809,412z"/>
		<path class="st0" d="M816,390h15v8h7v12h-7v11.4c0,2,2.4,2.5,4,2.5c1.4,0,3-0.2,3-0.2v12.5c0,0-3.3,0.7-7.1,0.7
			c-10.4,0-16.9-4.9-16.9-15.1V410h-2v-12h4V390z"/>
		<path class="st0" d="M856.3,420c0.6,4,3,4.5,6,4.5c3,0,5.3-1.1,6.5-2.5l11,6.1c-1.7,2.2-7.2,9-18.5,9c-13.5,0-21.3-9.4-21.3-20.5
			c0-10.8,8.2-19.6,20.3-19.6c13,0,20.4,7.6,20.4,19.2c0,2.6-0.2,3.6-0.2,3.6H856.3z M864.7,412c-0.1-2-1.6-3.7-3.9-3.7
			c-2.2,0-3.7,1.7-3.9,3.7H864.7z"/>
		<path class="st0" d="M910,412.1c-2-0.3-2-0.5-3.3-0.5c-3.5,0-6.7,2.6-6.7,7V437h-17v-39h17v4.4c0-2.1,3-5.1,10-5.1V412.1z"/>
		<path class="st0" d="M949,412v25h-15v-23.1c0-2.2-0.9-3.4-2.5-3.4c-1.9,0-2.5,1.6-2.5,3.4V437h-17v-39h17v3.4
			c0-1.9,3.9-4.1,8.2-4.1C945.6,397.3,949,403.1,949,412z"/>
		<path class="st0" d="M969,420c0.6,4,3,4.5,6,4.5c3,0,5.3-1.1,6.5-2.5l11,6.1c-1.7,2.2-7.2,9-18.5,9c-13.5,0-21.3-9.4-21.3-20.5
			c0-10.8,8.2-19.6,20.3-19.6c13,0,20.4,7.6,20.4,19.2c0,2.6-0.2,3.6-0.2,3.6H969z M977.4,412c-0.1-2-1.6-3.7-3.9-3.7
			c-2.2,0-3.7,1.7-3.9,3.7H977.4z"/>
		<path class="st0" d="M999,390h17v8h5v12h-5v11.4c0,2,2.4,2.5,4,2.5c1.4,0,3-0.2,3-0.2v12.5c0,0-3.3,0.7-7.1,0.7
			c-10.4,0-16.9-4.9-16.9-15.1V410h-3v-12h3V390z"/>
	</g>
	<g>
		<path class="st0" d="M779.6,27.8l-6.3,6.7c-7.2-6.7-19-15.6-41.1-15.6c-32.9,0-56.3,26.1-56.3,60.3c0,34.6,23.6,59.5,56.1,59.5
			c24,0,37.7-10.8,42.6-15.8V89.7h-32v-8.9h41.5V126c-14.5,16-32.1,21.9-52.1,21.9c-37.9,0-66.4-29.1-66.4-68.7
			c0-39.4,28.5-69.4,66.6-69.4C757.1,9.8,772.7,21.2,779.6,27.8z"/>
		<path class="st0" d="M827.3,97.6l-18.1,47.7h-9.9l51-133.2h9.5l51,133.2H901l-18.1-47.7H827.3z M855.1,23.3l-24.3,65.4h48.7
			L855.1,23.3z"/>
		<path class="st0" d="M994.7,122.2l52.7-110h12.2v133.2h-9.3V26.5l-50.4,106.1h-10.3L939.2,26.5v118.9h-9.3V12.2H942L994.7,122.2z"
			/>
		<path class="st0" d="M1091.9,12.2h60.7v8.9h-51v51.7h44.7v8.9h-44.7v54.6h53.1v8.9h-62.8V12.2z"/>
		<path class="st0" d="M1181.5,12.2h30.6c25.9,0,39.8,16.7,39.8,36.1c0,16.4-9.9,29.3-24.7,34.2l33.9,62.8h-10.8l-32.1-60.9h-26.8
			v60.9h-9.7V12.2z M1212.5,75.8c17.9,0,29.1-10.5,29.1-27.4c0-15.8-10.7-27.2-29.7-27.2h-20.7v54.6H1212.5z"/>
	</g>
	<g>
	</g>
	<g>
	</g>
	<g>
	</g>
	<g>
	</g>
	<g>
	</g>
	<g>
	</g>
	<g>
	</g>
	<g>
	</g>
	<g>
	</g>
	<g>
	</g>
	<g>
	</g>
	<g>
	</g>
	<g>
	</g>
	<g>
	</g>
	<g>
	</g>
</g>
</svg>
